<svg width="186" height="22" viewBox="0 0 186 22" fill="none" xmlns="http://www.w3.org/2000/svg">
<g clip-path="url(#clip0_500_18669)">
<path d="M11.0006 0C5.20148 0 0.5 4.81313 0.5 10.75C0.5 16.6869 5.20148 21.5 11.0006 21.5C16.7998 21.5 21.5012 16.6869 21.5012 10.75C21.5012 4.81313 16.7998 0 11.0006 0ZM11.0006 19.7642C8.73669 19.7642 6.90258 17.8851 6.90258 15.5689C6.90258 13.2526 8.73809 11.3735 11.0006 11.3735C13.2632 11.3735 15.0987 13.2526 15.0987 15.5689C15.0987 17.8851 13.2632 19.7642 11.0006 19.7642Z" fill="black"/>
<path d="M38.9309 2.57812C43.2348 2.57812 46.2254 4.56042 47.4084 7.75532L43.5568 9.51833C42.9548 7.66789 41.3839 6.32343 38.9309 6.32343C36.177 6.32343 34.004 8.04199 34.004 10.751C34.004 13.46 36.177 15.1786 38.9309 15.1786C41.3839 15.1786 42.9548 13.8341 43.5568 11.9837L47.4084 13.7467C46.2254 16.9416 43.2334 18.9239 38.9309 18.9239C33.5518 18.9239 29.7002 15.4652 29.7002 10.751C29.7002 6.03676 33.5518 2.57812 38.9309 2.57812Z" fill="black"/>
<path d="M53.949 12.2278H58.7905L56.381 7.07352L53.949 12.2278ZM58.8549 2.84375L66.4294 18.6606H61.8035L60.4048 15.6864H52.2927L50.894 18.6606H46.418L54.0134 2.84375H58.8549Z" fill="black"/>
<path d="M76.0871 18.6592L71.3954 7.29282V18.6592H67.2861V2.84375H73.5697L77.8302 13.373L82.0906 2.84375H88.2874V18.6592H84.1991V7.29282L79.4865 18.6592H76.0871Z" fill="black"/>
<path d="M94.4417 15.136H101.026C102.166 15.136 102.79 14.5627 102.79 13.7041C102.79 12.8456 102.166 12.2722 101.026 12.2722H94.4417V15.136ZM100.639 9.03432C101.801 9.03432 102.446 8.57135 102.446 7.68985C102.446 6.80835 101.801 6.34538 100.639 6.34538H94.4417V9.03288H100.639V9.03432ZM90.3955 2.84375H101.068C104.49 2.84375 106.426 4.36308 106.426 7.16095C106.426 8.90102 105.264 10.0033 104.318 10.4648C105.696 11.0381 106.856 12.3152 106.856 14.1872C106.856 16.985 104.877 18.6592 101.434 18.6592H90.3955V2.84518V2.84375Z" fill="black"/>
<path d="M117.832 10.0018C119.317 10.0018 120.135 9.29662 120.135 8.24025C120.135 7.11652 119.317 6.45575 117.832 6.45575H112.281V10.0018H117.832ZM112.281 18.6591H108.063V2.84375H118.047C121.812 2.84375 124.288 4.73862 124.288 8.12988C124.288 10.4648 122.997 12.1833 120.888 12.9545L124.632 18.6606H119.791L116.477 13.4174H112.281V18.6606V18.6591Z" fill="black"/>
<path d="M130.031 2.84375H125.813V18.6606H130.031V2.84375Z" fill="black"/>
<path d="M140.273 15.0257C143.394 15.0257 145.158 13.33 145.158 10.7515C145.158 8.17288 143.394 6.47868 140.252 6.47868H136.271V15.0257H140.274H140.273ZM132.14 2.84375H140.273C145.911 2.84375 149.354 5.92828 149.354 10.7515C149.354 15.5746 145.911 18.6592 140.273 18.6592H132.14V2.84375Z" fill="black"/>
<path d="M168.394 7.57759L164.327 9.09836C163.725 7.46866 162.24 6.30049 159.766 6.30049C156.989 6.30049 154.709 8.01906 154.709 10.8169C154.709 13.6148 156.904 15.2445 159.743 15.2445C162.067 15.2445 163.96 14.3415 164.413 13.063H158.517V9.69319H168.652V18.6587H164.736V17.2927C163.918 18.1957 161.939 18.9224 159.722 18.9224C154.256 18.9224 150.384 15.4638 150.384 10.7281C150.384 5.99232 154.279 2.57812 159.916 2.57812C164.112 2.57812 167.21 4.51599 168.393 7.57902" fill="black"/>
<path d="M170.482 2.84375V18.6592H185.501V15.0027H174.613V12.4256H184.275V8.85658H174.613V6.50018H185.501V2.84375H170.482Z" fill="black"/>
</g>
<defs>
<clipPath id="clip0_500_18669">
<rect width="185" height="21.5" fill="white" transform="translate(0.5)"/>
</clipPath>
</defs>
</svg>
